inDegrees=no
num_controls=7
num_derivatives=13
num_iterations=131
num_multipliers=7
num_parameters=0
num_slacks=7
num_states=26
objective=0.444909
objective_accelerations=0.058594
objective_balance=0.003611
objective_effort=0.023492
objective_height=0.353726
objective_ligament=0.005486
solver_duration=1859.710601
status=Solve_Succeeded
success=true
DataType=double
version=3
OpenSimVersion=4.5
endheader
time	/jointset/ground_pelvis/pelvis_tilt/value	/jointset/ground_pelvis/pelvis_tx/value	/jointset/ground_pelvis/pelvis_ty/value	/jointset/hip_l/hip_flexion_l/value	/jointset/hip_l/hip_adduction_l/value	/jointset/hip_l/hip_rotation_l/value	/jointset/back/lumbar_extension/value	/jointset/patellofemoral_l/patellar_flexion_l/value	/jointset/knee_l/knee_flexion_l/value	/jointset/knee_l/knee_adduction_l/value	/jointset/knee_l/knee_rotation_l/value	/jointset/ankle_l/ankle_angle_l/value	/jointset/subtalar_l/subtalar_angle_l/value	/jointset/ground_pelvis/pelvis_tilt/speed	/jointset/ground_pelvis/pelvis_tx/speed	/jointset/ground_pelvis/pelvis_ty/speed	/jointset/hip_l/hip_flexion_l/speed	/jointset/hip_l/hip_adduction_l/speed	/jointset/hip_l/hip_rotation_l/speed	/jointset/back/lumbar_extension/speed	/jointset/patellofemoral_l/patellar_flexion_l/speed	/jointset/knee_l/knee_flexion_l/speed	/jointset/knee_l/knee_adduction_l/speed	/jointset/knee_l/knee_rotation_l/speed	/jointset/ankle_l/ankle_angle_l/speed	/jointset/subtalar_l/subtalar_angle_l/speed	/forceset/tau_hip_flexion_l	/forceset/tau_hip_adduction_l	/forceset/tau_hip_rotation_l	/forceset/tau_knee_flexion_l	/forceset/tau_ankle_angle_l	/forceset/tau_subtalar_angle_l	/forceset/tau_lumbar_extension	lambda_cid13_p0	lambda_cid13_p1	lambda_cid13_p2	lambda_cid13_p3	lambda_cid13_p4	lambda_cid13_p5	lambda_cid14_p0	/jointset/ground_pelvis/pelvis_tilt/accel	/jointset/ground_pelvis/pelvis_tx/accel	/jointset/ground_pelvis/pelvis_ty/accel	/jointset/hip_l/hip_flexion_l/accel	/jointset/hip_l/hip_adduction_l/accel	/jointset/hip_l/hip_rotation_l/accel	/jointset/back/lumbar_extension/accel	/jointset/patellofemoral_l/patellar_flexion_l/accel	/jointset/knee_l/knee_flexion_l/accel	/jointset/knee_l/knee_adduction_l/accel	/jointset/knee_l/knee_rotation_l/accel	/jointset/ankle_l/ankle_angle_l/accel	/jointset/subtalar_l/subtalar_angle_l/accel	gamma_cid13_p0	gamma_cid13_p1	gamma_cid13_p2	gamma_cid13_p3	gamma_cid13_p4	gamma_cid13_p5	gamma_cid14_p0
1	-0.5607274505714755	-0.08582659730450909	0.5654523917934187	1.87151310780584	-0.4663475413817683	0.01719819233337732	-0.2617985290308544	1.401231247451338	1.401231247452355	-0.07752075997901067	-0.1745324070528647	0.2143918238460043	-0.01212777822803881	-0.01706629169340236	0.0106349526564973	0.002647139980710809	-0.001894958386487645	-0.002467715502677912	0.004084684384305684	-8.726909432254266e-06	0.001941877715710141	0.00194187771571036	-0.005746228146437909	-4.414398896047084e-06	0.02084439102290939	0.008948319299645319	-0.3410709568389764	0.00947723523289648	0.0005649787108837206	-0.3046622460186957	0.0419195839116934	0.0318715742687793	0.2897158017983933	-26.63654761961807	-9.848760651287835	2.000462277109332	7.026270181026635	-645.6540723513498	-48.08782765375434	-1.085579262536508	1.543692301546965	0.2512913234044269	2.028046147333076	-7.000519671312873	-0.09650239807175247	-2.348028877729559	-0.02160845619705355	-5.370913269696561	-5.370913269696576	-0.6394972628648284	-0.02486599548140248	-0.6004742129471501	-0.4367505565643104	4.574462874568794e-09	1.774822529153304e-08	-1.42646395720815e-08	2.727839639549788e-09	-1.940617558440725e-09	2.317492637131511e-08	2.391918654064386e-09
1.01	-0.5608218776798874	-0.08570772966559351	0.5655801154559229	1.871145432386088	-0.4663760315499049	0.01712045903648002	-0.261798650089708	1.400982245051938	1.400982245051879	-0.07760744801013764	-0.1745324053329836	0.2145704134817561	-0.01205872678673001	-0.001816756742504747	0.01314222706914667	0.02289339645509464	-0.0716334144603392	-0.003230156514359297	-0.0196320701329481	-1.488554595150318e-05	-0.05173839467214495	-0.05173839467215033	-0.01159109868786015	-4.387847707634557e-07	0.01486804435351402	0.004858700315580407	-0.3409675452174802	0.009558119205341883	0.000549622349570415	-0.3045214700807833	0.04179701007214992	0.03189720244429227	0.2896449184379565	-26.66221052594057	-9.86036469870589	2.007985885353836	6.941240789705084	-645.5092100183855	-48.10616355595029	-1.090109575054304	1.515938707914634	0.2509937783347564	2.022283442256562	-6.959503528839794	-0.06609090031716915	-2.383614072521874	0.009970329941650863	-5.365987598196429	-5.36598759819729	-0.5569442381555934	0.01225749179209267	-0.5970384284458685	-0.3955619652731618	-4.536458261321432e-09	6.920715963345998e-09	2.554754196829379e-08	2.436758374535212e-09	-1.261950884594358e-08	7.85185257210205e-08	-1.07996384395517e-08
1.02	-0.5607637385155799	-0.0855636796269235	0.5659101752921243	1.870080573414913	-0.4664121413176787	0.01680553512765044	-0.2617988147554597	1.400196559253685	1.400196559252552	-0.07775257720435405	-0.1745325182265692	0.2146890749439118	-0.01203067041445098	0.01344696285053206	0.01567143260737947	0.04311437472010012	-0.1413316686709309	-0.00399163543007404	-0.04335343800214524	-1.744828962984937e-05	-0.105394802054658	-0.1053948020546702	-0.01743446076426904	-2.733709334142555e-05	0.008858756303713057	0.0007493054936923686	-0.3408641335959843	0.00963900317778708	0.000534265988242205	-0.3043806941428712	0.04167443623260644	0.03192283061980519	0.2895740350775193	-26.69342990758541	-9.870884969598166	2.015210140132479	6.876470637483902	-645.4431826263153	-48.10216054337638	-1.103911499983135	1.546529229974803	0.255677548521113	2.022990505457407	-6.99247929866091	-0.09630997887841715	-2.348951548118224	-0.02088927762885023	-5.366140268628165	-5.366140268628419	-0.6391955698621546	-0.03104078002057808	-0.60706248902827	-0.4407057241289271	-1.222468279745663e-08	-7.91893299645456e-10	6.729721721728989e-08	3.025536023061918e-09	-2.237726923731536e-08	1.306778278316922e-07	-2.260647492669735e-08
1.03	-0.5605528556326862	-0.08539419724468329	0.5664422347946769	1.868319115990517	-0.4664557145076091	0.01625355768986194	-0.2617989752637677	1.398874528458938	1.39887452845962	-0.07795607885810939	-0.1745328847441987	0.2147474088843824	-0.01204365911981874	0.02873492737152794	0.01823167806856735	0.06328498297285419	-0.2109343023777266	-0.004707135023479363	-0.06702393550754854	-1.223863658244354e-05	-0.1589976414315119	-0.1589976414315145	-0.02325918252198032	-3.225734937893324e-05	0.002795843995417281	-0.003334089291074896	-0.3404697526457621	0.009769106172570948	0.0004887474918568652	-0.3040787445779459	0.04157624786480316	0.03204278204450797	0.2893053956360188	-26.69539799134781	-9.936790856299451	2.041886379995689	6.74892339608638	-645.0677658311974	-48.19066289492793	-1.127203660318302	1.52072338479213	0.257193907384326	2.012208078339555	-6.940332676463769	-0.05679886513508346	-2.373402934371472	0.01158829721504907	-5.355291501424949	-5.355291501423376	-0.553120535184241	0.01686700096276219	-0.6077336993579129	-0.3902242513412866	-1.989839002134942e-08	-8.472717868094081e-09	1.090666628102515e-07	3.623291823767622e-09	-3.212563033382867e-08	1.828046371133941e-07	-3.439918161173615e-08
